# xmcd
#
# Track frame offsets: 
#        150
#        10830
#        33770
#        51797
#        71415
#        111145
#        130662
#        150257
#        174425
#        189315
#        209140
#
# Disc length: 3165 seconds
#
# Revision: 2
# Processed by: cddbd v1.5.1PL0 Copyright (c) Steve Scherf et al.
# Submitted via: ExactAudioCopy v0.95a5
#
DISCID=860c5b0b
DTITLE=Guido Negraszus - Blue Garden PTR-000X-1
DYEAR=1990
DGENRE=Dream
TTITLE0=Blue Palmtrees
TTITLE1=Sir Lanka
TTITLE2=Summer Dreams
TTITLE3=Highway Flyer
TTITLE4=Blue Garden
TTITLE5=Blue Breathing Waves
TTITLE6=Electronic Voyager
TTITLE7=Ocean Fly
TTITLE8=Occidental Light
TTITLE9=The Ballad for a Friend
TTITLE10=Sailing
EXTD=
EXTT0=
EXTT1=
EXTT2=
EXTT3=
EXTT4=
EXTT5=
EXTT6=
EXTT7=
EXTT8=
EXTT9=
EXTT10=
PLAYORDER=
